<svg xmlns="http://www.w3.org/2000/svg" width="1100" height="420" viewBox="0 0 1100 420">
<rect x="0" y="0" width="100%" height="100%" fill="white"/>
<text x="550.0" y="34" text-anchor="middle" font-size="22" font-weight="bold" font-family="Arial, Helvetica, sans-serif">三肽：强活性 vs 全体 位置富集热图</text>
<text x="138" y="146.7" text-anchor="end" font-size="13" fill="#222" font-family="Arial, Helvetica, sans-serif">N端</text>
<rect x="150.0" y="110.0" width="42.5" height="63.3" fill="#c0d7ea" stroke="#ffffff" stroke-width="1"/>
<text x="171.2" y="145.7" text-anchor="middle" font-size="10" fill="#111" font-family="Arial, Helvetica, sans-serif">-0.886</text>
<rect x="192.5" y="110.0" width="42.5" height="63.3" fill="#f2c5c6" stroke="#ffffff" stroke-width="1"/>
<text x="213.8" y="145.7" text-anchor="middle" font-size="10" fill="#111" font-family="Arial, Helvetica, sans-serif">0.784</text>
<rect x="235.0" y="110.0" width="42.5" height="63.3" fill="#fae9e9" stroke="#ffffff" stroke-width="1"/>
<text x="256.2" y="145.7" text-anchor="middle" font-size="10" fill="#111" font-family="Arial, Helvetica, sans-serif">0.298</text>
<rect x="277.5" y="110.0" width="42.5" height="63.3" fill="#f2c5c6" stroke="#ffffff" stroke-width="1"/>
<text x="298.8" y="145.7" text-anchor="middle" font-size="10" fill="#111" font-family="Arial, Helvetica, sans-serif">0.784</text>
<rect x="320.0" y="110.0" width="42.5" height="63.3" fill="#fdf8f8" stroke="#ffffff" stroke-width="1"/>
<text x="341.2" y="145.7" text-anchor="middle" font-size="10" fill="#111" font-family="Arial, Helvetica, sans-serif">0.092</text>
<rect x="362.5" y="110.0" width="42.5" height="63.3" fill="#e8f0f7" stroke="#ffffff" stroke-width="1"/>
<text x="383.8" y="145.7" text-anchor="middle" font-size="10" fill="#111" font-family="Arial, Helvetica, sans-serif">-0.326</text>
<rect x="405.0" y="110.0" width="42.5" height="63.3" fill="#c6dbec" stroke="#ffffff" stroke-width="1"/>
<text x="426.2" y="145.7" text-anchor="middle" font-size="10" fill="#111" font-family="Arial, Helvetica, sans-serif">-0.801</text>
<rect x="447.5" y="110.0" width="42.5" height="63.3" fill="#fdf8f8" stroke="#ffffff" stroke-width="1"/>
<text x="468.8" y="145.7" text-anchor="middle" font-size="10" fill="#111" font-family="Arial, Helvetica, sans-serif">0.092</text>
<rect x="490.0" y="110.0" width="42.5" height="63.3" fill="#fafcfd" stroke="#ffffff" stroke-width="1"/>
<text x="511.2" y="145.7" text-anchor="middle" font-size="10" fill="#111" font-family="Arial, Helvetica, sans-serif">-0.0641</text>
<rect x="532.5" y="110.0" width="42.5" height="63.3" fill="#f9e4e5" stroke="#ffffff" stroke-width="1"/>
<text x="553.8" y="145.7" text-anchor="middle" font-size="10" fill="#111" font-family="Arial, Helvetica, sans-serif">0.36</text>
<rect x="575.0" y="110.0" width="42.5" height="63.3" fill="#f5d4d5" stroke="#ffffff" stroke-width="1"/>
<text x="596.2" y="145.7" text-anchor="middle" font-size="10" fill="#111" font-family="Arial, Helvetica, sans-serif">0.577</text>
<rect x="617.5" y="110.0" width="42.5" height="63.3" fill="#92b9db" stroke="#ffffff" stroke-width="1"/>
<text x="638.8" y="145.7" text-anchor="middle" font-size="10" fill="#111" font-family="Arial, Helvetica, sans-serif">-1.54</text>
<rect x="660.0" y="110.0" width="42.5" height="63.3" fill="#e3edf6" stroke="#ffffff" stroke-width="1"/>
<text x="681.2" y="145.7" text-anchor="middle" font-size="10" fill="#111" font-family="Arial, Helvetica, sans-serif">-0.401</text>
<rect x="702.5" y="110.0" width="42.5" height="63.3" fill="#f2c5c6" stroke="#ffffff" stroke-width="1"/>
<text x="723.8" y="145.7" text-anchor="middle" font-size="10" fill="#111" font-family="Arial, Helvetica, sans-serif">0.784</text>
<rect x="745.0" y="110.0" width="42.5" height="63.3" fill="#a0c2df" stroke="#ffffff" stroke-width="1"/>
<text x="766.2" y="145.7" text-anchor="middle" font-size="10" fill="#111" font-family="Arial, Helvetica, sans-serif">-1.33</text>
<rect x="787.5" y="110.0" width="42.5" height="63.3" fill="#c6dbec" stroke="#ffffff" stroke-width="1"/>
<text x="808.8" y="145.7" text-anchor="middle" font-size="10" fill="#111" font-family="Arial, Helvetica, sans-serif">-0.801</text>
<rect x="830.0" y="110.0" width="42.5" height="63.3" fill="#fbeced" stroke="#ffffff" stroke-width="1"/>
<text x="851.2" y="145.7" text-anchor="middle" font-size="10" fill="#111" font-family="Arial, Helvetica, sans-serif">0.253</text>
<rect x="872.5" y="110.0" width="42.5" height="63.3" fill="#f8e2e2" stroke="#ffffff" stroke-width="1"/>
<text x="893.8" y="145.7" text-anchor="middle" font-size="10" fill="#111" font-family="Arial, Helvetica, sans-serif">0.397</text>
<rect x="915.0" y="110.0" width="42.5" height="63.3" fill="#92b9db" stroke="#ffffff" stroke-width="1"/>
<text x="936.2" y="145.7" text-anchor="middle" font-size="10" fill="#111" font-family="Arial, Helvetica, sans-serif">-1.54</text>
<rect x="957.5" y="110.0" width="42.5" height="63.3" fill="#fcfdfe" stroke="#ffffff" stroke-width="1"/>
<text x="978.8" y="145.7" text-anchor="middle" font-size="10" fill="#111" font-family="Arial, Helvetica, sans-serif">-0.0393</text>
<text x="138" y="210.0" text-anchor="end" font-size="13" fill="#222" font-family="Arial, Helvetica, sans-serif">中间位</text>
<rect x="150.0" y="173.3" width="42.5" height="63.3" fill="#f8dfe0" stroke="#ffffff" stroke-width="1"/>
<text x="171.2" y="209.0" text-anchor="middle" font-size="10" fill="#111" font-family="Arial, Helvetica, sans-serif">0.432</text>
<rect x="192.5" y="173.3" width="42.5" height="63.3" fill="#f2c5c6" stroke="#ffffff" stroke-width="1"/>
<text x="213.8" y="209.0" text-anchor="middle" font-size="10" fill="#111" font-family="Arial, Helvetica, sans-serif">0.784</text>
<rect x="235.0" y="173.3" width="42.5" height="63.3" fill="#f2c5c6" stroke="#ffffff" stroke-width="1"/>
<text x="256.2" y="209.0" text-anchor="middle" font-size="10" fill="#111" font-family="Arial, Helvetica, sans-serif">0.784</text>
<rect x="277.5" y="173.3" width="42.5" height="63.3" fill="#d5e4f1" stroke="#ffffff" stroke-width="1"/>
<text x="298.8" y="209.0" text-anchor="middle" font-size="10" fill="#111" font-family="Arial, Helvetica, sans-serif">-0.595</text>
<rect x="320.0" y="173.3" width="42.5" height="63.3" fill="#d6e5f1" stroke="#ffffff" stroke-width="1"/>
<text x="341.2" y="209.0" text-anchor="middle" font-size="10" fill="#111" font-family="Arial, Helvetica, sans-serif">-0.57</text>
<rect x="362.5" y="173.3" width="42.5" height="63.3" fill="#d6e5f1" stroke="#ffffff" stroke-width="1"/>
<text x="383.8" y="209.0" text-anchor="middle" font-size="10" fill="#111" font-family="Arial, Helvetica, sans-serif">-0.57</text>
<rect x="405.0" y="173.3" width="42.5" height="63.3" fill="#2171b5" stroke="#ffffff" stroke-width="1"/>
<text x="426.2" y="209.0" text-anchor="middle" font-size="10" fill="#fff" font-family="Arial, Helvetica, sans-serif">-3.12</text>
<rect x="447.5" y="173.3" width="42.5" height="63.3" fill="#fefcfc" stroke="#ffffff" stroke-width="1"/>
<text x="468.8" y="209.0" text-anchor="middle" font-size="10" fill="#111" font-family="Arial, Helvetica, sans-serif">0.0469</text>
<rect x="490.0" y="173.3" width="42.5" height="63.3" fill="#fae7e8" stroke="#ffffff" stroke-width="1"/>
<text x="511.2" y="209.0" text-anchor="middle" font-size="10" fill="#111" font-family="Arial, Helvetica, sans-serif">0.318</text>
<rect x="532.5" y="173.3" width="42.5" height="63.3" fill="#e3edf6" stroke="#ffffff" stroke-width="1"/>
<text x="553.8" y="209.0" text-anchor="middle" font-size="10" fill="#111" font-family="Arial, Helvetica, sans-serif">-0.401</text>
<rect x="575.0" y="173.3" width="42.5" height="63.3" fill="#f2c5c6" stroke="#ffffff" stroke-width="1"/>
<text x="596.2" y="209.0" text-anchor="middle" font-size="10" fill="#111" font-family="Arial, Helvetica, sans-serif">0.784</text>
<rect x="617.5" y="173.3" width="42.5" height="63.3" fill="#c6dbec" stroke="#ffffff" stroke-width="1"/>
<text x="638.8" y="209.0" text-anchor="middle" font-size="10" fill="#111" font-family="Arial, Helvetica, sans-serif">-0.801</text>
<rect x="660.0" y="173.3" width="42.5" height="63.3" fill="#fdf6f6" stroke="#ffffff" stroke-width="1"/>
<text x="681.2" y="209.0" text-anchor="middle" font-size="10" fill="#111" font-family="Arial, Helvetica, sans-serif">0.123</text>
<rect x="702.5" y="173.3" width="42.5" height="63.3" fill="#eaf2f8" stroke="#ffffff" stroke-width="1"/>
<text x="723.8" y="209.0" text-anchor="middle" font-size="10" fill="#111" font-family="Arial, Helvetica, sans-serif">-0.294</text>
<rect x="745.0" y="173.3" width="42.5" height="63.3" fill="#f6d6d7" stroke="#ffffff" stroke-width="1"/>
<text x="766.2" y="209.0" text-anchor="middle" font-size="10" fill="#111" font-family="Arial, Helvetica, sans-serif">0.553</text>
<rect x="787.5" y="173.3" width="42.5" height="63.3" fill="#f6d7d8" stroke="#ffffff" stroke-width="1"/>
<text x="808.8" y="209.0" text-anchor="middle" font-size="10" fill="#111" font-family="Arial, Helvetica, sans-serif">0.543</text>
<rect x="830.0" y="173.3" width="42.5" height="63.3" fill="#ffffff" stroke="#ffffff" stroke-width="1"/>
<text x="851.2" y="209.0" text-anchor="middle" font-size="10" fill="#111" font-family="Arial, Helvetica, sans-serif">-0.00463</text>
<rect x="872.5" y="173.3" width="42.5" height="63.3" fill="#fef9f9" stroke="#ffffff" stroke-width="1"/>
<text x="893.8" y="209.0" text-anchor="middle" font-size="10" fill="#111" font-family="Arial, Helvetica, sans-serif">0.0776</text>
<rect x="915.0" y="173.3" width="42.5" height="63.3" fill="#f2c5c6" stroke="#ffffff" stroke-width="1"/>
<text x="936.2" y="209.0" text-anchor="middle" font-size="10" fill="#111" font-family="Arial, Helvetica, sans-serif">0.784</text>
<rect x="957.5" y="173.3" width="42.5" height="63.3" fill="#a4c5e1" stroke="#ffffff" stroke-width="1"/>
<text x="978.8" y="209.0" text-anchor="middle" font-size="10" fill="#111" font-family="Arial, Helvetica, sans-serif">-1.29</text>
<text x="138" y="273.3" text-anchor="end" font-size="13" fill="#222" font-family="Arial, Helvetica, sans-serif">C端</text>
<rect x="150.0" y="236.7" width="42.5" height="63.3" fill="#f9e6e7" stroke="#ffffff" stroke-width="1"/>
<text x="171.2" y="272.3" text-anchor="middle" font-size="10" fill="#111" font-family="Arial, Helvetica, sans-serif">0.336</text>
<rect x="192.5" y="236.7" width="42.5" height="63.3" fill="#f2c5c6" stroke="#ffffff" stroke-width="1"/>
<text x="213.8" y="272.3" text-anchor="middle" font-size="10" fill="#111" font-family="Arial, Helvetica, sans-serif">0.784</text>
<rect x="235.0" y="236.7" width="42.5" height="63.3" fill="#f2c5c6" stroke="#ffffff" stroke-width="1"/>
<text x="256.2" y="272.3" text-anchor="middle" font-size="10" fill="#111" font-family="Arial, Helvetica, sans-serif">0.784</text>
<rect x="277.5" y="236.7" width="42.5" height="63.3" fill="#f2c5c6" stroke="#ffffff" stroke-width="1"/>
<text x="298.8" y="272.3" text-anchor="middle" font-size="10" fill="#111" font-family="Arial, Helvetica, sans-serif">0.784</text>
<rect x="320.0" y="236.7" width="42.5" height="63.3" fill="#f8e1e1" stroke="#ffffff" stroke-width="1"/>
<text x="341.2" y="272.3" text-anchor="middle" font-size="10" fill="#111" font-family="Arial, Helvetica, sans-serif">0.409</text>
<rect x="362.5" y="236.7" width="42.5" height="63.3" fill="#e3edf6" stroke="#ffffff" stroke-width="1"/>
<text x="383.8" y="272.3" text-anchor="middle" font-size="10" fill="#111" font-family="Arial, Helvetica, sans-serif">-0.401</text>
<rect x="405.0" y="236.7" width="42.5" height="63.3" fill="#fefcfc" stroke="#ffffff" stroke-width="1"/>
<text x="426.2" y="272.3" text-anchor="middle" font-size="10" fill="#111" font-family="Arial, Helvetica, sans-serif">0.0469</text>
<rect x="447.5" y="236.7" width="42.5" height="63.3" fill="#fae9e9" stroke="#ffffff" stroke-width="1"/>
<text x="468.8" y="272.3" text-anchor="middle" font-size="10" fill="#111" font-family="Arial, Helvetica, sans-serif">0.298</text>
<rect x="490.0" y="236.7" width="42.5" height="63.3" fill="#a5c5e1" stroke="#ffffff" stroke-width="1"/>
<text x="511.2" y="272.3" text-anchor="middle" font-size="10" fill="#111" font-family="Arial, Helvetica, sans-serif">-1.27</text>
<rect x="532.5" y="236.7" width="42.5" height="63.3" fill="#fffefe" stroke="#ffffff" stroke-width="1"/>
<text x="553.8" y="272.3" text-anchor="middle" font-size="10" fill="#111" font-family="Arial, Helvetica, sans-serif">0.0133</text>
<rect x="575.0" y="236.7" width="42.5" height="63.3" fill="#f2c5c6" stroke="#ffffff" stroke-width="1"/>
<text x="596.2" y="272.3" text-anchor="middle" font-size="10" fill="#111" font-family="Arial, Helvetica, sans-serif">0.784</text>
<rect x="617.5" y="236.7" width="42.5" height="63.3" fill="#e0ebf5" stroke="#ffffff" stroke-width="1"/>
<text x="638.8" y="272.3" text-anchor="middle" font-size="10" fill="#111" font-family="Arial, Helvetica, sans-serif">-0.439</text>
<rect x="660.0" y="236.7" width="42.5" height="63.3" fill="#fafcfd" stroke="#ffffff" stroke-width="1"/>
<text x="681.2" y="272.3" text-anchor="middle" font-size="10" fill="#111" font-family="Arial, Helvetica, sans-serif">-0.075</text>
<rect x="702.5" y="236.7" width="42.5" height="63.3" fill="#92b9db" stroke="#ffffff" stroke-width="1"/>
<text x="723.8" y="272.3" text-anchor="middle" font-size="10" fill="#111" font-family="Arial, Helvetica, sans-serif">-1.54</text>
<rect x="745.0" y="236.7" width="42.5" height="63.3" fill="#e9f1f8" stroke="#ffffff" stroke-width="1"/>
<text x="766.2" y="272.3" text-anchor="middle" font-size="10" fill="#111" font-family="Arial, Helvetica, sans-serif">-0.316</text>
<rect x="787.5" y="236.7" width="42.5" height="63.3" fill="#6fa3cf" stroke="#ffffff" stroke-width="1"/>
<text x="808.8" y="272.3" text-anchor="middle" font-size="10" fill="#fff" font-family="Arial, Helvetica, sans-serif">-2.02</text>
<rect x="830.0" y="236.7" width="42.5" height="63.3" fill="#92b9db" stroke="#ffffff" stroke-width="1"/>
<text x="851.2" y="272.3" text-anchor="middle" font-size="10" fill="#111" font-family="Arial, Helvetica, sans-serif">-1.54</text>
<rect x="872.5" y="236.7" width="42.5" height="63.3" fill="#e6eff7" stroke="#ffffff" stroke-width="1"/>
<text x="893.8" y="272.3" text-anchor="middle" font-size="10" fill="#111" font-family="Arial, Helvetica, sans-serif">-0.354</text>
<rect x="915.0" y="236.7" width="42.5" height="63.3" fill="#fbeeef" stroke="#ffffff" stroke-width="1"/>
<text x="936.2" y="272.3" text-anchor="middle" font-size="10" fill="#111" font-family="Arial, Helvetica, sans-serif">0.227</text>
<rect x="957.5" y="236.7" width="42.5" height="63.3" fill="#f9e3e4" stroke="#ffffff" stroke-width="1"/>
<text x="978.8" y="272.3" text-anchor="middle" font-size="10" fill="#111" font-family="Arial, Helvetica, sans-serif">0.377</text>
<text x="171.2" y="98.0" text-anchor="middle" font-size="12" fill="#222" font-family="Arial, Helvetica, sans-serif">A</text>
<text x="213.8" y="98.0" text-anchor="middle" font-size="12" fill="#222" font-family="Arial, Helvetica, sans-serif">C</text>
<text x="256.2" y="98.0" text-anchor="middle" font-size="12" fill="#222" font-family="Arial, Helvetica, sans-serif">D</text>
<text x="298.8" y="98.0" text-anchor="middle" font-size="12" fill="#222" font-family="Arial, Helvetica, sans-serif">E</text>
<text x="341.2" y="98.0" text-anchor="middle" font-size="12" fill="#222" font-family="Arial, Helvetica, sans-serif">F</text>
<text x="383.8" y="98.0" text-anchor="middle" font-size="12" fill="#222" font-family="Arial, Helvetica, sans-serif">G</text>
<text x="426.2" y="98.0" text-anchor="middle" font-size="12" fill="#222" font-family="Arial, Helvetica, sans-serif">H</text>
<text x="468.8" y="98.0" text-anchor="middle" font-size="12" fill="#222" font-family="Arial, Helvetica, sans-serif">I</text>
<text x="511.2" y="98.0" text-anchor="middle" font-size="12" fill="#222" font-family="Arial, Helvetica, sans-serif">K</text>
<text x="553.8" y="98.0" text-anchor="middle" font-size="12" fill="#222" font-family="Arial, Helvetica, sans-serif">L</text>
<text x="596.2" y="98.0" text-anchor="middle" font-size="12" fill="#222" font-family="Arial, Helvetica, sans-serif">M</text>
<text x="638.8" y="98.0" text-anchor="middle" font-size="12" fill="#222" font-family="Arial, Helvetica, sans-serif">N</text>
<text x="681.2" y="98.0" text-anchor="middle" font-size="12" fill="#222" font-family="Arial, Helvetica, sans-serif">P</text>
<text x="723.8" y="98.0" text-anchor="middle" font-size="12" fill="#222" font-family="Arial, Helvetica, sans-serif">Q</text>
<text x="766.2" y="98.0" text-anchor="middle" font-size="12" fill="#222" font-family="Arial, Helvetica, sans-serif">R</text>
<text x="808.8" y="98.0" text-anchor="middle" font-size="12" fill="#222" font-family="Arial, Helvetica, sans-serif">S</text>
<text x="851.2" y="98.0" text-anchor="middle" font-size="12" fill="#222" font-family="Arial, Helvetica, sans-serif">T</text>
<text x="893.8" y="98.0" text-anchor="middle" font-size="12" fill="#222" font-family="Arial, Helvetica, sans-serif">V</text>
<text x="936.2" y="98.0" text-anchor="middle" font-size="12" fill="#222" font-family="Arial, Helvetica, sans-serif">W</text>
<text x="978.8" y="98.0" text-anchor="middle" font-size="12" fill="#222" font-family="Arial, Helvetica, sans-serif">Y</text>
<rect x="1028" y="110.0" width="18" height="2.90" fill="#cb181d" stroke="none"/>
<rect x="1028" y="111.9" width="18" height="2.90" fill="#cc1d22" stroke="none"/>
<rect x="1028" y="113.8" width="18" height="2.90" fill="#cd2126" stroke="none"/>
<rect x="1028" y="115.7" width="18" height="2.90" fill="#ce262b" stroke="none"/>
<rect x="1028" y="117.6" width="18" height="2.90" fill="#cf2b2f" stroke="none"/>
<rect x="1028" y="119.5" width="18" height="2.90" fill="#d02f34" stroke="none"/>
<rect x="1028" y="121.4" width="18" height="2.90" fill="#d13438" stroke="none"/>
<rect x="1028" y="123.3" width="18" height="2.90" fill="#d2393d" stroke="none"/>
<rect x="1028" y="125.2" width="18" height="2.90" fill="#d33d42" stroke="none"/>
<rect x="1028" y="127.1" width="18" height="2.90" fill="#d44246" stroke="none"/>
<rect x="1028" y="129.0" width="18" height="2.90" fill="#d6474b" stroke="none"/>
<rect x="1028" y="130.9" width="18" height="2.90" fill="#d74b4f" stroke="none"/>
<rect x="1028" y="132.8" width="18" height="2.90" fill="#d85054" stroke="none"/>
<rect x="1028" y="134.7" width="18" height="2.90" fill="#d95558" stroke="none"/>
<rect x="1028" y="136.6" width="18" height="2.90" fill="#da595d" stroke="none"/>
<rect x="1028" y="138.5" width="18" height="2.90" fill="#db5e61" stroke="none"/>
<rect x="1028" y="140.4" width="18" height="2.90" fill="#dc6366" stroke="none"/>
<rect x="1028" y="142.3" width="18" height="2.90" fill="#dd676b" stroke="none"/>
<rect x="1028" y="144.2" width="18" height="2.90" fill="#de6c6f" stroke="none"/>
<rect x="1028" y="146.1" width="18" height="2.90" fill="#df7174" stroke="none"/>
<rect x="1028" y="148.0" width="18" height="2.90" fill="#e07578" stroke="none"/>
<rect x="1028" y="149.9" width="18" height="2.90" fill="#e17a7d" stroke="none"/>
<rect x="1028" y="151.8" width="18" height="2.90" fill="#e27f81" stroke="none"/>
<rect x="1028" y="153.7" width="18" height="2.90" fill="#e38386" stroke="none"/>
<rect x="1028" y="155.6" width="18" height="2.90" fill="#e4888b" stroke="none"/>
<rect x="1028" y="157.5" width="18" height="2.90" fill="#e58d8f" stroke="none"/>
<rect x="1028" y="159.4" width="18" height="2.90" fill="#e69194" stroke="none"/>
<rect x="1028" y="161.3" width="18" height="2.90" fill="#e79698" stroke="none"/>
<rect x="1028" y="163.2" width="18" height="2.90" fill="#e89b9d" stroke="none"/>
<rect x="1028" y="165.1" width="18" height="2.90" fill="#e99fa1" stroke="none"/>
<rect x="1028" y="167.0" width="18" height="2.90" fill="#eba4a6" stroke="none"/>
<rect x="1028" y="168.9" width="18" height="2.90" fill="#eca9ab" stroke="none"/>
<rect x="1028" y="170.8" width="18" height="2.90" fill="#edadaf" stroke="none"/>
<rect x="1028" y="172.7" width="18" height="2.90" fill="#eeb2b4" stroke="none"/>
<rect x="1028" y="174.6" width="18" height="2.90" fill="#efb7b8" stroke="none"/>
<rect x="1028" y="176.5" width="18" height="2.90" fill="#f0bbbd" stroke="none"/>
<rect x="1028" y="178.4" width="18" height="2.90" fill="#f1c0c1" stroke="none"/>
<rect x="1028" y="180.3" width="18" height="2.90" fill="#f2c5c6" stroke="none"/>
<rect x="1028" y="182.2" width="18" height="2.90" fill="#f3c9ca" stroke="none"/>
<rect x="1028" y="184.1" width="18" height="2.90" fill="#f4cecf" stroke="none"/>
<rect x="1028" y="186.0" width="18" height="2.90" fill="#f5d3d4" stroke="none"/>
<rect x="1028" y="187.9" width="18" height="2.90" fill="#f6d7d8" stroke="none"/>
<rect x="1028" y="189.8" width="18" height="2.90" fill="#f7dcdd" stroke="none"/>
<rect x="1028" y="191.7" width="18" height="2.90" fill="#f8e1e1" stroke="none"/>
<rect x="1028" y="193.6" width="18" height="2.90" fill="#f9e5e6" stroke="none"/>
<rect x="1028" y="195.5" width="18" height="2.90" fill="#faeaea" stroke="none"/>
<rect x="1028" y="197.4" width="18" height="2.90" fill="#fbefef" stroke="none"/>
<rect x="1028" y="199.3" width="18" height="2.90" fill="#fcf3f4" stroke="none"/>
<rect x="1028" y="201.2" width="18" height="2.90" fill="#fdf8f8" stroke="none"/>
<rect x="1028" y="203.1" width="18" height="2.90" fill="#fefdfd" stroke="none"/>
<rect x="1028" y="205.0" width="18" height="2.90" fill="#fdfefe" stroke="none"/>
<rect x="1028" y="206.9" width="18" height="2.90" fill="#f8fbfd" stroke="none"/>
<rect x="1028" y="208.8" width="18" height="2.90" fill="#f4f8fb" stroke="none"/>
<rect x="1028" y="210.7" width="18" height="2.90" fill="#eff5fa" stroke="none"/>
<rect x="1028" y="212.6" width="18" height="2.90" fill="#ebf2f8" stroke="none"/>
<rect x="1028" y="214.5" width="18" height="2.90" fill="#e6eff7" stroke="none"/>
<rect x="1028" y="216.4" width="18" height="2.90" fill="#e2ecf5" stroke="none"/>
<rect x="1028" y="218.3" width="18" height="2.90" fill="#dde9f4" stroke="none"/>
<rect x="1028" y="220.2" width="18" height="2.90" fill="#d9e7f2" stroke="none"/>
<rect x="1028" y="222.1" width="18" height="2.90" fill="#d4e4f1" stroke="none"/>
<rect x="1028" y="224.0" width="18" height="2.90" fill="#d0e1ef" stroke="none"/>
<rect x="1028" y="225.9" width="18" height="2.90" fill="#cbdeee" stroke="none"/>
<rect x="1028" y="227.8" width="18" height="2.90" fill="#c7dbec" stroke="none"/>
<rect x="1028" y="229.7" width="18" height="2.90" fill="#c2d8eb" stroke="none"/>
<rect x="1028" y="231.6" width="18" height="2.90" fill="#bed5e9" stroke="none"/>
<rect x="1028" y="233.5" width="18" height="2.90" fill="#b9d3e8" stroke="none"/>
<rect x="1028" y="235.4" width="18" height="2.90" fill="#b5d0e6" stroke="none"/>
<rect x="1028" y="237.3" width="18" height="2.90" fill="#b1cde5" stroke="none"/>
<rect x="1028" y="239.2" width="18" height="2.90" fill="#accae3" stroke="none"/>
<rect x="1028" y="241.1" width="18" height="2.90" fill="#a8c7e2" stroke="none"/>
<rect x="1028" y="243.0" width="18" height="2.90" fill="#a3c4e0" stroke="none"/>
<rect x="1028" y="244.9" width="18" height="2.90" fill="#9fc1df" stroke="none"/>
<rect x="1028" y="246.8" width="18" height="2.90" fill="#9abedd" stroke="none"/>
<rect x="1028" y="248.7" width="18" height="2.90" fill="#96bcdc" stroke="none"/>
<rect x="1028" y="250.6" width="18" height="2.90" fill="#91b9da" stroke="none"/>
<rect x="1028" y="252.5" width="18" height="2.90" fill="#8db6d9" stroke="none"/>
<rect x="1028" y="254.4" width="18" height="2.90" fill="#88b3d7" stroke="none"/>
<rect x="1028" y="256.3" width="18" height="2.90" fill="#84b0d6" stroke="none"/>
<rect x="1028" y="258.2" width="18" height="2.90" fill="#7fadd4" stroke="none"/>
<rect x="1028" y="260.1" width="18" height="2.90" fill="#7baad3" stroke="none"/>
<rect x="1028" y="262.0" width="18" height="2.90" fill="#76a8d1" stroke="none"/>
<rect x="1028" y="263.9" width="18" height="2.90" fill="#72a5d0" stroke="none"/>
<rect x="1028" y="265.8" width="18" height="2.90" fill="#6da2ce" stroke="none"/>
<rect x="1028" y="267.7" width="18" height="2.90" fill="#699fcd" stroke="none"/>
<rect x="1028" y="269.6" width="18" height="2.90" fill="#649ccb" stroke="none"/>
<rect x="1028" y="271.5" width="18" height="2.90" fill="#6099ca" stroke="none"/>
<rect x="1028" y="273.4" width="18" height="2.90" fill="#5b96c8" stroke="none"/>
<rect x="1028" y="275.3" width="18" height="2.90" fill="#5793c7" stroke="none"/>
<rect x="1028" y="277.2" width="18" height="2.90" fill="#5291c5" stroke="none"/>
<rect x="1028" y="279.1" width="18" height="2.90" fill="#4e8ec4" stroke="none"/>
<rect x="1028" y="281.0" width="18" height="2.90" fill="#498bc2" stroke="none"/>
<rect x="1028" y="282.9" width="18" height="2.90" fill="#4588c1" stroke="none"/>
<rect x="1028" y="284.8" width="18" height="2.90" fill="#4085bf" stroke="none"/>
<rect x="1028" y="286.7" width="18" height="2.90" fill="#3c82be" stroke="none"/>
<rect x="1028" y="288.6" width="18" height="2.90" fill="#377fbc" stroke="none"/>
<rect x="1028" y="290.5" width="18" height="2.90" fill="#337cbb" stroke="none"/>
<rect x="1028" y="292.4" width="18" height="2.90" fill="#2e7ab9" stroke="none"/>
<rect x="1028" y="294.3" width="18" height="2.90" fill="#2a77b8" stroke="none"/>
<rect x="1028" y="296.2" width="18" height="2.90" fill="#2574b6" stroke="none"/>
<rect x="1028" y="298.1" width="18" height="2.90" fill="#2171b5" stroke="none"/>
<text x="1054" y="114.0" font-size="11" fill="#222" font-family="Arial, Helvetica, sans-serif">3.123</text>
<text x="1054" y="209.0" font-size="11" fill="#222" font-family="Arial, Helvetica, sans-serif">0</text>
<text x="1054" y="304.0" font-size="11" fill="#222" font-family="Arial, Helvetica, sans-serif">-3.123</text>
<text x="550.0" y="408" text-anchor="middle" font-size="11" fill="#666" font-family="Arial, Helvetica, sans-serif">如果某些 C 端位点持续为红，通常是非常值得深入解释的残基模式。</text>
</svg>