<svg xmlns="http://www.w3.org/2000/svg" width="1280" height="780" viewBox="0 0 1280 780">
<rect x="0" y="0" width="100%" height="100%" fill="white"/>
<text x="640.0" y="34" text-anchor="middle" font-size="22" font-weight="bold" font-family="Arial, Helvetica, sans-serif">二肽与三肽数量分组柱状图</text>
<line x1="100" y1="640.0" x2="1220" y2="640.0" stroke="#dddddd" stroke-width="1"/>
<text x="88" y="644.0" text-anchor="end" font-size="12" fill="#444" font-family="Arial, Helvetica, sans-serif">0</text>
<line x1="100" y1="530.0" x2="1220" y2="530.0" stroke="#dddddd" stroke-width="1"/>
<text x="88" y="534.0" text-anchor="end" font-size="12" fill="#444" font-family="Arial, Helvetica, sans-serif">37.6</text>
<line x1="100" y1="420.0" x2="1220" y2="420.0" stroke="#dddddd" stroke-width="1"/>
<text x="88" y="424.0" text-anchor="end" font-size="12" fill="#444" font-family="Arial, Helvetica, sans-serif">75.2</text>
<line x1="100" y1="310.0" x2="1220" y2="310.0" stroke="#dddddd" stroke-width="1"/>
<text x="88" y="314.0" text-anchor="end" font-size="12" fill="#444" font-family="Arial, Helvetica, sans-serif">112.8</text>
<line x1="100" y1="200.0" x2="1220" y2="200.0" stroke="#dddddd" stroke-width="1"/>
<text x="88" y="204.0" text-anchor="end" font-size="12" fill="#444" font-family="Arial, Helvetica, sans-serif">150.4</text>
<line x1="100" y1="90.0" x2="1220" y2="90.0" stroke="#dddddd" stroke-width="1"/>
<text x="88" y="94.0" text-anchor="end" font-size="12" fill="#444" font-family="Arial, Helvetica, sans-serif">188</text>
<line x1="100" y1="90" x2="100" y2="640" stroke="#333" stroke-width="1.5"/>
<line x1="100" y1="640" x2="1220" y2="640" stroke="#333" stroke-width="1.5"/>
<rect x="184.0" y="373.8" width="52.0" height="266.2" fill="#2E86AB" opacity="0.88"/>
<text x="210.0" y="367.8" text-anchor="middle" font-size="10" fill="#222" font-family="Arial, Helvetica, sans-serif">91</text>
<rect x="244.0" y="90.0" width="52.0" height="550.0" fill="#F18F01" opacity="0.88"/>
<text x="270.0" y="84.0" text-anchor="middle" font-size="10" fill="#222" font-family="Arial, Helvetica, sans-serif">188</text>
<text x="240.0" y="664.0" text-anchor="middle" font-size="12" fill="#222" font-family="Arial, Helvetica, sans-serif">全部稳定序列</text>
<rect x="464.0" y="587.3" width="52.0" height="52.7" fill="#2E86AB" opacity="0.88"/>
<text x="490.0" y="581.3" text-anchor="middle" font-size="10" fill="#222" font-family="Arial, Helvetica, sans-serif">18</text>
<rect x="524.0" y="332.8" width="52.0" height="307.2" fill="#F18F01" opacity="0.88"/>
<text x="550.0" y="326.8" text-anchor="middle" font-size="10" fill="#222" font-family="Arial, Helvetica, sans-serif">105</text>
<text x="520.0" y="664.0" text-anchor="middle" font-size="12" fill="#222" font-family="Arial, Helvetica, sans-serif">强活性稳定序列</text>
<rect x="744.0" y="599.0" width="52.0" height="41.0" fill="#2E86AB" opacity="0.88"/>
<text x="770.0" y="593.0" text-anchor="middle" font-size="10" fill="#222" font-family="Arial, Helvetica, sans-serif">14</text>
<rect x="804.0" y="543.5" width="52.0" height="96.5" fill="#F18F01" opacity="0.88"/>
<text x="830.0" y="537.5" text-anchor="middle" font-size="10" fill="#222" font-family="Arial, Helvetica, sans-serif">33</text>
<text x="800.0" y="664.0" text-anchor="middle" font-size="12" fill="#222" font-family="Arial, Helvetica, sans-serif">中等活性稳定序列</text>
<rect x="1024.0" y="467.4" width="52.0" height="172.6" fill="#2E86AB" opacity="0.88"/>
<text x="1050.0" y="461.4" text-anchor="middle" font-size="10" fill="#222" font-family="Arial, Helvetica, sans-serif">59</text>
<rect x="1084.0" y="493.7" width="52.0" height="146.3" fill="#F18F01" opacity="0.88"/>
<text x="1110.0" y="487.7" text-anchor="middle" font-size="10" fill="#222" font-family="Arial, Helvetica, sans-serif">50</text>
<text x="1080.0" y="664.0" text-anchor="middle" font-size="12" fill="#222" font-family="Arial, Helvetica, sans-serif">较弱活性稳定序列</text>
<rect x="120" y="54" width="18" height="12" fill="#2E86AB" opacity="0.88"/>
<text x="144" y="65" font-size="12" fill="#222" font-family="Arial, Helvetica, sans-serif">二肽</text>
<rect x="300" y="54" width="18" height="12" fill="#F18F01" opacity="0.88"/>
<text x="324" y="65" font-size="12" fill="#222" font-family="Arial, Helvetica, sans-serif">三肽</text>
<text x="660.0" y="718.0" text-anchor="middle" font-size="14" fill="#222" font-family="Arial, Helvetica, sans-serif">分析分组</text>
<text x="24" y="365.0" transform="rotate(-90 24,365.0)" text-anchor="middle" font-size="14" fill="#222" font-family="Arial, Helvetica, sans-serif">序列数</text>
<text x="640.0" y="768" text-anchor="middle" font-size="11" fill="#666" font-family="Arial, Helvetica, sans-serif">这里聚焦稳定序列层，更适合后续构效分析与第一版建模。</text>
</svg>