<svg xmlns="http://www.w3.org/2000/svg" width="1200" height="760" viewBox="0 0 1200 760">
<rect x="0" y="0" width="100%" height="100%" fill="white"/>
<text x="600.0" y="34" text-anchor="middle" font-size="22" font-weight="bold" font-family="Arial, Helvetica, sans-serif">冲突倍数分箱柱状图</text>
<line x1="100" y1="610.0" x2="1160" y2="610.0" stroke="#dddddd" stroke-width="1"/>
<text x="88" y="614.0" text-anchor="end" font-size="12" fill="#444" font-family="Arial, Helvetica, sans-serif">0</text>
<line x1="100" y1="502.0" x2="1160" y2="502.0" stroke="#dddddd" stroke-width="1"/>
<text x="88" y="506.0" text-anchor="end" font-size="12" fill="#444" font-family="Arial, Helvetica, sans-serif">49.8</text>
<line x1="100" y1="394.0" x2="1160" y2="394.0" stroke="#dddddd" stroke-width="1"/>
<text x="88" y="398.0" text-anchor="end" font-size="12" fill="#444" font-family="Arial, Helvetica, sans-serif">99.6</text>
<line x1="100" y1="286.0" x2="1160" y2="286.0" stroke="#dddddd" stroke-width="1"/>
<text x="88" y="290.0" text-anchor="end" font-size="12" fill="#444" font-family="Arial, Helvetica, sans-serif">149.4</text>
<line x1="100" y1="178.0" x2="1160" y2="178.0" stroke="#dddddd" stroke-width="1"/>
<text x="88" y="182.0" text-anchor="end" font-size="12" fill="#444" font-family="Arial, Helvetica, sans-serif">199.2</text>
<line x1="100" y1="70.0" x2="1160" y2="70.0" stroke="#dddddd" stroke-width="1"/>
<text x="88" y="74.0" text-anchor="end" font-size="12" fill="#444" font-family="Arial, Helvetica, sans-serif">249</text>
<line x1="100" y1="70" x2="100" y2="610" stroke="#333" stroke-width="1.5"/>
<line x1="100" y1="610" x2="1160" y2="610" stroke="#333" stroke-width="1.5"/>
<rect x="139.2" y="70.0" width="54.0" height="540.0" fill="#2E86AB" opacity="0.88"/>
<text x="166.2" y="64.0" text-anchor="middle" font-size="11" fill="#222" font-family="Arial, Helvetica, sans-serif">249</text>
<text x="166.2" y="628.0" transform="rotate(-45 166.2,628.0)" text-anchor="end" font-size="12" fill="#222" font-family="Arial, Helvetica, sans-serif">1（无冲突）</text>
<rect x="271.8" y="562.3" width="54.0" height="47.7" fill="#2E86AB" opacity="0.88"/>
<text x="298.8" y="556.3" text-anchor="middle" font-size="11" fill="#222" font-family="Arial, Helvetica, sans-serif">22</text>
<text x="298.8" y="628.0" transform="rotate(-45 298.8,628.0)" text-anchor="end" font-size="12" fill="#222" font-family="Arial, Helvetica, sans-serif">(1,1.5]</text>
<rect x="404.2" y="601.3" width="54.0" height="8.7" fill="#2E86AB" opacity="0.88"/>
<text x="431.2" y="595.3" text-anchor="middle" font-size="11" fill="#222" font-family="Arial, Helvetica, sans-serif">4</text>
<text x="431.2" y="628.0" transform="rotate(-45 431.2,628.0)" text-anchor="end" font-size="12" fill="#222" font-family="Arial, Helvetica, sans-serif">(1.5,2]</text>
<rect x="536.8" y="601.3" width="54.0" height="8.7" fill="#2E86AB" opacity="0.88"/>
<text x="563.8" y="595.3" text-anchor="middle" font-size="11" fill="#222" font-family="Arial, Helvetica, sans-serif">4</text>
<text x="563.8" y="628.0" transform="rotate(-45 563.8,628.0)" text-anchor="end" font-size="12" fill="#222" font-family="Arial, Helvetica, sans-serif">(2,3]</text>
<rect x="669.2" y="584.0" width="54.0" height="26.0" fill="#2E86AB" opacity="0.88"/>
<text x="696.2" y="578.0" text-anchor="middle" font-size="11" fill="#222" font-family="Arial, Helvetica, sans-serif">12</text>
<text x="696.2" y="628.0" transform="rotate(-45 696.2,628.0)" text-anchor="end" font-size="12" fill="#222" font-family="Arial, Helvetica, sans-serif">(3,5]</text>
<rect x="801.8" y="584.0" width="54.0" height="26.0" fill="#2E86AB" opacity="0.88"/>
<text x="828.8" y="578.0" text-anchor="middle" font-size="11" fill="#222" font-family="Arial, Helvetica, sans-serif">12</text>
<text x="828.8" y="628.0" transform="rotate(-45 828.8,628.0)" text-anchor="end" font-size="12" fill="#222" font-family="Arial, Helvetica, sans-serif">(5,10]</text>
<rect x="934.2" y="534.1" width="54.0" height="75.9" fill="#2E86AB" opacity="0.88"/>
<text x="961.2" y="528.1" text-anchor="middle" font-size="11" fill="#222" font-family="Arial, Helvetica, sans-serif">35</text>
<text x="961.2" y="628.0" transform="rotate(-45 961.2,628.0)" text-anchor="end" font-size="12" fill="#222" font-family="Arial, Helvetica, sans-serif">&gt;10</text>
<rect x="1066.8" y="603.5" width="54.0" height="6.5" fill="#2E86AB" opacity="0.88"/>
<text x="1093.8" y="597.5" text-anchor="middle" font-size="11" fill="#222" font-family="Arial, Helvetica, sans-serif">3</text>
<text x="1093.8" y="628.0" transform="rotate(-45 1093.8,628.0)" text-anchor="end" font-size="12" fill="#222" font-family="Arial, Helvetica, sans-serif">缺失</text>
<text x="630.0" y="702.0" text-anchor="middle" font-size="14" fill="#222" font-family="Arial, Helvetica, sans-serif">最大最小倍数分箱</text>
<text x="24" y="340.0" transform="rotate(-90 24,340.0)" text-anchor="middle" font-size="14" fill="#222" font-family="Arial, Helvetica, sans-serif">序列数</text>
<text x="600.0" y="748" text-anchor="middle" font-size="11" fill="#666" font-family="Arial, Helvetica, sans-serif">最大最小倍数越大，说明同一序列在不同记录中的标签波动越大。</text>
</svg>