<svg xmlns="http://www.w3.org/2000/svg" width="1280" height="780" viewBox="0 0 1280 780">
<rect x="0" y="0" width="100%" height="100%" fill="white"/>
<text x="640.0" y="34" text-anchor="middle" font-size="22" font-weight="bold" font-family="Arial, Helvetica, sans-serif">精确 IC50 样本量分组柱状图</text>
<line x1="100" y1="640.0" x2="1220" y2="640.0" stroke="#dddddd" stroke-width="1"/>
<text x="88" y="644.0" text-anchor="end" font-size="12" fill="#444" font-family="Arial, Helvetica, sans-serif">0</text>
<line x1="100" y1="530.0" x2="1220" y2="530.0" stroke="#dddddd" stroke-width="1"/>
<text x="88" y="534.0" text-anchor="end" font-size="12" fill="#444" font-family="Arial, Helvetica, sans-serif">222.6</text>
<line x1="100" y1="420.0" x2="1220" y2="420.0" stroke="#dddddd" stroke-width="1"/>
<text x="88" y="424.0" text-anchor="end" font-size="12" fill="#444" font-family="Arial, Helvetica, sans-serif">445.2</text>
<line x1="100" y1="310.0" x2="1220" y2="310.0" stroke="#dddddd" stroke-width="1"/>
<text x="88" y="314.0" text-anchor="end" font-size="12" fill="#444" font-family="Arial, Helvetica, sans-serif">667.8</text>
<line x1="100" y1="200.0" x2="1220" y2="200.0" stroke="#dddddd" stroke-width="1"/>
<text x="88" y="204.0" text-anchor="end" font-size="12" fill="#444" font-family="Arial, Helvetica, sans-serif">890.4</text>
<line x1="100" y1="90.0" x2="1220" y2="90.0" stroke="#dddddd" stroke-width="1"/>
<text x="88" y="94.0" text-anchor="end" font-size="12" fill="#444" font-family="Arial, Helvetica, sans-serif">1113</text>
<line x1="100" y1="90" x2="100" y2="640" stroke="#333" stroke-width="1.5"/>
<line x1="100" y1="640" x2="1220" y2="640" stroke="#333" stroke-width="1.5"/>
<rect x="230.7" y="90.0" width="52.0" height="550.0" fill="#2E86AB" opacity="0.88"/>
<text x="256.7" y="84.0" text-anchor="middle" font-size="10" fill="#222" font-family="Arial, Helvetica, sans-serif">1113</text>
<rect x="290.7" y="318.3" width="52.0" height="321.7" fill="#F18F01" opacity="0.88"/>
<text x="316.7" y="312.3" text-anchor="middle" font-size="10" fill="#222" font-family="Arial, Helvetica, sans-serif">651</text>
<text x="286.7" y="664.0" text-anchor="middle" font-size="12" fill="#222" font-family="Arial, Helvetica, sans-serif">高置信记录</text>
<rect x="604.0" y="471.5" width="52.0" height="168.5" fill="#2E86AB" opacity="0.88"/>
<text x="630.0" y="465.5" text-anchor="middle" font-size="10" fill="#222" font-family="Arial, Helvetica, sans-serif">341</text>
<rect x="664.0" y="565.4" width="52.0" height="74.6" fill="#F18F01" opacity="0.88"/>
<text x="690.0" y="559.4" text-anchor="middle" font-size="10" fill="#222" font-family="Arial, Helvetica, sans-serif">151</text>
<text x="660.0" y="664.0" text-anchor="middle" font-size="12" fill="#222" font-family="Arial, Helvetica, sans-serif">唯一序列</text>
<rect x="977.3" y="502.1" width="52.0" height="137.9" fill="#2E86AB" opacity="0.88"/>
<text x="1003.3" y="496.1" text-anchor="middle" font-size="10" fill="#222" font-family="Arial, Helvetica, sans-serif">279</text>
<rect x="1037.3" y="579.2" width="52.0" height="60.8" fill="#F18F01" opacity="0.88"/>
<text x="1063.3" y="573.2" text-anchor="middle" font-size="10" fill="#222" font-family="Arial, Helvetica, sans-serif">123</text>
<text x="1033.3" y="664.0" text-anchor="middle" font-size="12" fill="#222" font-family="Arial, Helvetica, sans-serif">稳定序列</text>
<rect x="120" y="54" width="18" height="12" fill="#2E86AB" opacity="0.88"/>
<text x="144" y="65" font-size="12" fill="#222" font-family="Arial, Helvetica, sans-serif">全部样本量</text>
<rect x="300" y="54" width="18" height="12" fill="#F18F01" opacity="0.88"/>
<text x="324" y="65" font-size="12" fill="#222" font-family="Arial, Helvetica, sans-serif">强活性样本量</text>
<text x="660.0" y="718.0" text-anchor="middle" font-size="14" fill="#222" font-family="Arial, Helvetica, sans-serif">数据层级</text>
<text x="24" y="365.0" transform="rotate(-90 24,365.0)" text-anchor="middle" font-size="14" fill="#222" font-family="Arial, Helvetica, sans-serif">样本量</text>
<text x="640.0" y="768" text-anchor="middle" font-size="11" fill="#666" font-family="Arial, Helvetica, sans-serif">“全部样本量”反映可用监督规模；“强活性样本量”反映高价值样本规模。</text>
</svg>